<?xml version="1.0" encoding="utf-8"?>
<svg viewBox="-76.351 -2.866 178.055 111.866" xmlns="http://www.w3.org/2000/svg" xmlns:bx="https://boxy-svg.com">
  <g id="kvg:StrokePaths_05b57" style="fill:none;stroke:#000000;stroke-width:3;stroke-linecap:round;stroke-linejoin:round;">
    <g id="kvg:05b57">
      <g id="kvg:05b57-g1">
        <path id="kvg:05b57-s1" d="M52.73,9.5c1.01,1.01,1.75,2.25,1.75,3.76c0,3.53-0.09,5.73-0.1,8.95"/>
        <g id="kvg:05b57-g2">
          <path id="kvg:05b57-s2" d="M21.88,24c0,3.37-4.06,14.25-5.62,16.5"/>
          <path id="kvg:05b57-s3" d="M24.07,26.66c16.68-1.91,42.18-5.28,63-5.78c10.95-0.26,4.68,5.37,0.52,8.4"/>
        </g>
      </g>
      <g id="kvg:05b57-g3">
        <path id="kvg:05b57-s4" d="M34.91,36.19c2.09,1.06,4.35,1.5,6.87,1.26c4.73-0.45,19.99-2.86,26.18-4.24c3.17-0.71,4.92,0.67,2.1,3.7c-2.15,2.31-9.34,9.46-14.25,12.73"/>
        <path id="kvg:05b57-s5" d="M52.71,51.03c5.42,5.22,9.29,26.84,3.67,43.18c-2.57,7.47-8.5,2.78-10.58,0.81"/>
        <path id="kvg:05b57-s6" d="M14.38,63.51c3.88,1.24,8.65,0.84,12.38,0.47c15.18-1.5,43-4.92,59.75-5.41c3.45-0.1,7.13-0.23,10.37,1.15"/>
      </g>
    </g>
  </g>
  <g id="kvg:StrokePaths_06f22" style="fill:none;stroke:#000000;stroke-width:3;stroke-linecap:round;stroke-linejoin:round;" transform="matrix(1, 0, 0, 1, -85.794067, -1.899881)">
    <g id="kvg:06f22">
      <g id="kvg:06f22-g1">
        <path id="kvg:06f22-s1" d="M20,19.5c3.62,1.47,8.62,5.38,10.25,8.34"/>
        <path id="kvg:06f22-s2" d="M15.25,44.12c4.24,1.43,10.94,5.9,12,8.12"/>
        <path id="kvg:06f22-s3" d="M15.41,89.2c1.46,0.43,2.88-0.03,3.59-1.24c2.75-4.7,5.5-10.45,8-16.45"/>
      </g>
      <g id="kvg:06f22-g2">
        <g id="kvg:06f22-g3">
          <path id="kvg:06f22-s4" d="M36.07,23.3c2,0.54,5.08,0.53,7.07,0.27C55,21.98,71.25,20.32,83.19,19.6c3.32-0.2,5.57,0.23,7.24,0.5"/>
          <path id="kvg:06f22-s5" d="M49.35,13.24c1.28,0.76,1.96,1.77,2.17,2.86c1.24,6.52,1.74,10.35,2.13,12.65"/>
          <path id="kvg:06f22-s6" d="M71.38,9.75c0.62,1.12,1,2.52,0.63,4.18c-1.13,5.19-1.38,6.69-2.62,12.91"/>
        </g>
        <g id="kvg:06f22-g4">
          <g id="kvg:06f22-g5">
            <path id="kvg:06f22-s7" d="M42,33.71c0.77,0.77,1.54,1.65,1.73,2.54c0.82,3.88,1.52,7.8,2.23,11.75c0.18,1.01,0.36,2.02,0.54,3.02"/>
            <path id="kvg:06f22-s8" d="M44.63,35.3c9.5-1.3,26.87-3.37,33.86-4.12c2.88-0.31,4.83-0.11,3.87,3.11c-0.97,3.28-1.83,6.85-3.21,11.14"/>
            <path id="kvg:06f22-s9" d="M47.7,49.58c5.06-0.4,19.5-1.97,29.31-3.03c1.43-0.15,2.77-0.3,3.96-0.43"/>
          </g>
          <g id="kvg:06f22-g6">
            <path id="kvg:06f22-s10" d="M43.84,59.47c1.39,0.45,3.94,0.58,5.33,0.45c6.04-0.55,21.02-2.17,27.94-2.69c2.31-0.17,3.71,0.21,4.87,0.44"/>
            <g id="kvg:06f22-g7">
              <path id="kvg:06f22-s11" d="M37.34,72.25c1.62,0.37,4.58,0.45,6.2,0.37c8.01-0.38,27.71-2.99,41.25-3.49c2.69-0.1,4.31,0.18,5.66,0.36"/>
              <path id="kvg:06f22-s12" d="M61.6,34.8c0.48,0.95,0.91,2.34,0.91,4.18c0,44.02-7.39,48.27-27.77,57.52"/>
              <path id="kvg:06f22-s13" d="M61,72c8,5.75,18.25,15.12,25.74,19.39c2.42,1.38,4.26,2.24,5.89,2.74"/>
            </g>
          </g>
        </g>
      </g>
    </g>
  </g>
  <g transform="matrix(1.656324, 0.174087, -0.17398, 1.655314, -30.537153, -3.514932)" bx:origin="0.585009 1.132954">
    <path fill="#b0bdc6" d="M 19.63 39.683 L 23.73 39.683 L 23.73 45.083 L 19.63 45.083 L 19.63 39.683 Z" transform="matrix(0.707007, -0.707207, 0.707207, 0.707007, -23.621452, 27.750175)"/>
    <path fill="#dfe9ef" d="M 19.63 40.984 L 23.73 40.984 L 23.73 43.784 L 19.63 43.784 L 19.63 40.984 Z" transform="matrix(0.707307, -0.706907, 0.706907, 0.707307, -23.615946, 27.731247)"/>
    <path fill="#b0bdc6" d="M 21.614 38.835 L 23.314 38.835 L 23.314 44.235 L 21.614 44.235 L 21.614 38.835 Z" transform="matrix(0.707207, -0.707007, 0.707007, 0.707207, -22.788219, 28.043365)"/>
    <path d="M 22.5 41.5 C 31.5 50.5 46.2 50.5 55.3 41.5 C 64.3 32.5 64.3 17.8 55.3 8.7 C 46.3 -0.4 31.6 -0.3 22.5 8.7 C 13.4 17.8 13.4 32.5 22.5 41.5 M 24.6 10.9 C 32.5 3 45.2 3 53 10.9 C 60.9 18.8 60.9 31.5 53 39.3 C 45.1 47.2 32.4 47.2 24.6 39.3 C 16.8 31.5 16.8 18.8 24.6 10.9" fill="#dfe9ef"/>
    <path d="M 24.1 39.9 C 32.2 48 45.4 48 53.6 39.9 C 61.7 31.8 61.7 18.6 53.6 10.4 C 45.5 2.3 32.3 2.3 24.1 10.4 C 16 18.6 16 31.8 24.1 39.9 M 25.2 11.5 C 32.7 4 45 4 52.5 11.5 C 60 19 60 31.3 52.5 38.8 C 45 46.3 32.7 46.3 25.2 38.8 C 17.7 31.3 17.7 19 25.2 11.5" fill="#b0bdc6"/>
    <path d="M 27.9 29.8 C 34.4 36.3 45 36.3 51.5 29.8 C 53.2 28.1 54.5 26.1 55.3 23.9 C 55.7 28.7 54.1 33.6 50.5 37.2 C 44 43.7 33.4 43.7 26.9 37.2 C 22.1 32.4 20.9 25.4 23.1 19.5 C 23.5 23.3 25.1 26.9 27.9 29.8" opacity=".6" fill="#a6aeb0"/>
    <path fill="#333" d="M 4.096 45.268 L 23.596 45.268 L 23.596 55.068 L 4.096 55.068 L 4.096 45.268 Z" transform="matrix(0.707107, -0.707107, 0.707107, 0.707107, -31.418734, 24.484468)"/>
    <path fill="#575b5e" d="M 4.096 47.469 L 23.596 47.469 L 23.596 52.869 L 4.096 52.869 L 4.096 47.469 Z" transform="matrix(0.707207, -0.707007, 0.707007, 0.707207, -31.415808, 24.478358)"/>
    <path d="M 2.1 52.9 C 1 54 9.9 63 11.1 61.9 L 11.8 61.2 C 12.9 60.1 4 51.1 2.8 52.2 L 2.1 52.9" fill="#b0bdc6"/>
    <path d="M 3.6 54.4 C 2.5 55.5 8.4 61.5 9.6 60.4 L 10.3 59.7 C 11.4 58.6 5.5 52.6 4.3 53.7 L 3.6 54.4" fill="#dfe9ef"/>
  </g>
</svg>